<svg xmlns="http://www.w3.org/2000/svg" width="17.216" height="16.174" viewBox="0 0 17.216 16.174">
  <g id="_20-Checked" data-name="20-Checked" transform="translate(-31.576 -45.398)">
    <path id="Path_38" data-name="Path 38" d="M84.262,59.538a.377.377,0,0,1-.325-.186c-1.256-2.14-4.606-6.7-4.639-6.744a.377.377,0,0,1,.039-.491l1.03-1.018a.377.377,0,0,1,.481-.041l3.337,2.33a41.618,41.618,0,0,1,5.67-6.007,21.088,21.088,0,0,1,2.554-1.929A.377.377,0,0,1,92.6,45.4h1.666a.377.377,0,0,1,.251.658c-4.732,4.215-9.878,13.2-9.929,13.291a.377.377,0,0,1-.325.19Z" transform="translate(-45.853)" fill="#6d51fb"/>
    <path id="Path_39" data-name="Path 39" d="M44.765,128.166H31.953a.377.377,0,0,1-.377-.377V114.977a.377.377,0,0,1,.377-.377h8.309a.377.377,0,0,1,0,.754H32.33v12.059H44.389v-7.932a.377.377,0,1,1,.754,0v8.309A.377.377,0,0,1,44.765,128.166Z" transform="translate(0 -66.594)" fill="#6d51fb"/>
  </g>
</svg>
