<svg width="18" height="16" viewBox="0 0 18 16" fill="none" xmlns="http://www.w3.org/2000/svg">
<path d="M0 2.56537C0 2.2017 0.298061 1.90912 0.668548 1.90912H1.936C2.54884 1.90912 3.09204 2.25912 3.34553 2.78412H14.7944C15.527 2.78412 16.0619 3.46771 15.8697 4.16224L14.7276 8.3267C14.4908 9.18529 13.6969 9.78412 12.7916 9.78412H4.75505L4.90547 10.5634C4.96676 10.8724 5.24253 11.0966 5.56288 11.0966H13.5938C13.9643 11.0966 14.2624 11.3892 14.2624 11.7529C14.2624 12.1165 13.9643 12.4091 13.5938 12.4091H5.56288C4.59905 12.4091 3.77173 11.7365 3.59345 10.8095L2.15607 3.39935C2.13657 3.29545 2.04464 3.22162 1.936 3.22162H0.668548C0.298061 3.22162 0 2.92904 0 2.56537ZM3.56559 14.5966C3.56559 14.4243 3.60017 14.2536 3.66737 14.0943C3.73457 13.9351 3.83306 13.7904 3.95722 13.6685C4.08138 13.5467 4.22878 13.45 4.391 13.384C4.55323 13.3181 4.7271 13.2841 4.90269 13.2841C5.07828 13.2841 5.25215 13.3181 5.41437 13.384C5.57659 13.45 5.724 13.5467 5.84816 13.6685C5.97232 13.7904 6.07081 13.9351 6.138 14.0943C6.2052 14.2536 6.23978 14.4243 6.23978 14.5966C6.23978 14.769 6.2052 14.9396 6.138 15.0989C6.07081 15.2581 5.97232 15.4028 5.84816 15.5247C5.724 15.6466 5.57659 15.7433 5.41437 15.8092C5.25215 15.8752 5.07828 15.9091 4.90269 15.9091C4.7271 15.9091 4.55323 15.8752 4.391 15.8092C4.22878 15.7433 4.08138 15.6466 3.95722 15.5247C3.83306 15.4028 3.73457 15.2581 3.66737 15.0989C3.60017 14.9396 3.56559 14.769 3.56559 14.5966ZM12.9253 13.2841C13.2799 13.2841 13.62 13.4224 13.8707 13.6685C14.1215 13.9147 14.2624 14.2485 14.2624 14.5966C14.2624 14.9447 14.1215 15.2786 13.8707 15.5247C13.62 15.7708 13.2799 15.9091 12.9253 15.9091C12.5706 15.9091 12.2305 15.7708 11.9798 15.5247C11.729 15.2786 11.5882 14.9447 11.5882 14.5966C11.5882 14.2485 11.729 13.9147 11.9798 13.6685C12.2305 13.4224 12.5706 13.2841 12.9253 13.2841Z" fill="#F5EFDF"/>
<circle cx="15.9096" cy="1.90909" r="1.90909" fill="#EE0C32"/>
</svg>
